/* XPM */
static char *result[] = {
/* columns rows colors chars-per-pixel */
"32 32 25 1 ",
"  c black",
". c #2D2420",
"X c #342A25",
"o c #3C312C",
"O c #7A2D18",
"+ c #512D23",
"@ c #5B3C2C",
"# c #453A35",
"$ c #4A413C",
"% c #5A5237",
"& c #60583C",
"* c #645C3F",
"= c #695D58",
"- c #5E724A",
"; c #677755",
": c #6A7A5A",
"> c #70805F",
", c #778667",
"< c #7C8A6E",
"1 c #8DAB5F",
"2 c #A2A97F",
"3 c #97A48A",
"4 c #A5B09B",
"5 c #BEC49F",
"6 c None",
/* pixels */
"66666666666666666666666666666666",
"66666666666666666666666666666666",
"66666666666666666666666666666666",
"66666666666666     6666666666666",
"6666666666666 -@+++ 666666666666",
"666666666666 +@@++@- 66666666666",
"66666666666 ++@-@+@-- 6666666666",
"66666666666 +@--@@;-- 6666666666",
"66666666666 @-;;>@>;- 6666666666",
"66666666666 -;>>>@>>; 6666666666",
"66666666666 ->   >@   6666666666",
"666666666666 >>51>@15 6436666666",
"666666666666 >>>>>@>; 6663666666",
"666666666666 ->>>>>@; 6664366666",
"66666666666   -2>2>2@ 6666436666",
"6666666666 $$o,-2O2O 66666436666",
"6666666666 ##++<-OOo 66666436666",
"6666666666 ..+,#$$Xo 66666436666",
"66666666666 o...##$$o 6666436666",
"66666666666 oooo>.##$$ 666436666",
"66666666666 XXX:X   oo 666436666",
"66666666666 ..... 66 Xo 64366666",
"6666666666 %****** 6 Xoo 4366666",
"6666666666 %***%** 66 ::43666666",
"66666666666 *** &* 666  43666666",
"66666666666 *** ** 6666436666666",
"66666666666 $$$ O:O6666666666666",
"66666666666 $== :>> 666666666666",
"66666666666         666666666666",
"66666666666666666666666666666666",
"66666666666666666666666666666666",
"66666666666666666666666666666666"
};
