/* XPM */
static char *result[] = {
/* columns rows colors chars-per-pixel */
"32 32 24 1 ",
"  c black",
". c #2D2420",
"X c #342A25",
"o c #3C312C",
"O c #7A2D18",
"+ c #512D23",
"@ c #5B3C2C",
"# c #453A35",
"$ c #4A413C",
"% c #5A5237",
"& c #60583C",
"* c #645C3F",
"= c #695D58",
"- c #5E724A",
"; c #677755",
": c #6A7A5A",
"> c #70805F",
", c #778667",
"< c #8DAB5F",
"1 c #A2A97F",
"2 c #97A48A",
"3 c #A5B09B",
"4 c #BEC49F",
"5 c None",
/* pixels */
"55555555555555555555555555555555",
"55555555555555555555555555555555",
"55555555555555555555555555555555",
"555555555555     555555555555555",
"55555555555 @++@@ 55555555555555",
"5555555555 @@++@-- 5555555555555",
"555555555 @-@+@---- 555555555555",
"555555555 --@@;---- 555555555555",
"555555555 -;@>>;;-- 555555555555",
"555555555 ;>@>>>>;- 555555555555",
"555555555   >@   >- 555555555555",
"555555235 4<>@<4>> 5555555555555",
"555552555 ;>>@>>>> 5555555555555",
"555523555 ;>>>@@>- 5555555555555",
"555235555 -1>1>1@   555555555555",
"5552355555 -1O1O,o$$ 55555555555",
"5552355555 o-OO$$$## 55555555555",
"5552355555 +X$$###.. 55555555555",
"555235555 >$$##...o 555555555555",
"55523555 $$##.ooo>o 555555555555",
"55523555 oo   XX:XX 555555555555",
"5555235 oX 55 ..... 555555555555",
"555523 ooX 5 ******% 55555555555",
"5555523:: 55 **%***% 55555555555",
"5555523  555 *& *** 555555555555",
"555555235555 ** *** 555555555555",
"555555555555O$O ::: 555555555555",
"55555555555 === >>> 555555555555",
"55555555555         555555555555",
"55555555555555555555555555555555",
"55555555555555555555555555555555",
"55555555555555555555555555555555"
};
