/* XPM */
static char *result[] = {
/* columns rows colors chars-per-pixel */
"14 18 33 1 ",
"  c #E3251E",
". c #E42A23",
"X c #E5352F",
"o c #E63E38",
"O c #E7403A",
"+ c #E7443F",
"@ c #E7453F",
"# c #E84741",
"$ c #E9504B",
"% c #EA5A55",
"& c #EA5B56",
"* c #EA5C57",
"= c #EB615C",
"- c #EB625D",
"; c #EC6C67",
": c #EE7773",
"> c #EE7974",
", c #F1928F",
"< c #F19491",
"1 c #F7BEBC",
"2 c #F9CECD",
"3 c #F9D2D0",
"4 c #FAD9D8",
"5 c #FADBDA",
"6 c #FBE0DF",
"7 c #FBE1E0",
"8 c #FCE7E6",
"9 c #FCE9E8",
"0 c #FCEAE9",
"q c #FDECEC",
"w c #FDF0EF",
"e c #FEF5F4",
"r c None",
/* pixels */
"rrr52222227rrr",
"rrrX      $rrr",
"rrrX      $rrr",
"3@@ &&&&&& @#8",
"1  ;rrrrrr$  4",
"1  ;rrrrrr$  4",
"1  ;rrrrrr$  4",
"1  *000000+  4",
"9,,        ,<e",
"rrrX      $rrr",
"4== OOOOOO =-q",
"1  ;rrrrrr$  4",
"1  ;rrrrrr$  4",
"1  ;rrrrrr$  4",
"1  ;rrrrrr$  4",
"6:: ...... :>w",
"rrrX      $rrr",
"rrro      %rrr"
};
