/* XPM */
static char *eight1721140779[] = {
/* columns rows colors chars-per-pixel */
"8 11 21 1 ",
"  c #E70000",
". c #EB0000",
"X c #F62B00",
"o c #F62F00",
"O c #F63B00",
"+ c #F63E00",
"@ c #F74802",
"# c #F85A2F",
"$ c #F85A33",
"% c #FB674A",
"& c #FC7961",
"* c #FF8A77",
"= c #FFAC9F",
"- c None",
"; c None",
": c None",
"> c None",
", c None",
"< c None",
"1 c None",
"2 c None",
/* pixels */
"2#....<2",
"-.    %:",
" X222> o",
" o222> o",
" .===& @",
"2X    ,2",
"..***O $",
" o222> o",
" o222> o",
"*.... +;",
"2@    12"
};
