/* XPM */
static char *five1721140778[] = {
/* columns rows colors chars-per-pixel */
"8 11 18 1 ",
"  c #E70000",
". c #EB0000",
"X c #EC0000",
"o c #F62B00",
"O c #F62F00",
"+ c #F63E00",
"@ c #F74800",
"# c #F85A33",
"$ c #FC745A",
"% c #FF8A77",
"& c None",
"* c None",
"= c None",
"- c None",
"; c None",
": c None",
"> c None",
", c None",
/* pixels */
"X......#",
"       O",
" o,,,,,,",
" .....>,",
"      $=",
",,,,,; O",
",,,,,; O",
"&-,,,; O",
" O,,,; O",
"%.... +*",
",@    :,"
};
