/* XPM */
static char *result[] = {
/* columns rows colors chars-per-pixel */
"14 18 34 1 ",
"  c #E3251E",
". c #E42A23",
"X c #E42C26",
"o c #E5352F",
"O c #E63E38",
"+ c #E7403A",
"@ c #E7443F",
"# c #E9504B",
"$ c #EA5A55",
"% c #EA5B56",
"& c #EA5D58",
"* c #EC6C67",
"= c #EE7773",
"- c #EE7974",
"; c #F1928F",
": c #F29794",
"> c #F5B3B0",
", c #F6B6B4",
"< c #F7BEBC",
"1 c #F9CECD",
"2 c #F9D0CE",
"3 c #FAD5D4",
"4 c #FAD9D8",
"5 c #FBDEDD",
"6 c #FBE0DF",
"7 c #FCE9E8",
"8 c #FCEAE9",
"9 c #FCEAEA",
"0 c #FCEBEB",
"q c #FDF0EF",
"w c #FDF2F2",
"e c #FEFAFA",
"r c #FFFEFE",
"t c None",
/* pixels */
"e111111111112r",
"<            4",
"<            4",
"<  X%%%%%%%%&9",
"<  *tttttttttt",
"<  +::::::,ttt",
"<         #ttt",
"<         @80t",
"7;;;;;;;;;   5",
"tttttttttt#  4",
"tttttttttt#  4",
"tttttttttt#  4",
"w>>3tttttt#  4",
"<  *tttttt#  4",
"<  *tttttt#  4",
"6== ...... =-q",
"ttto      #ttt",
"tttO      $ttt"
};
