/* XPM */
static char *four1721140779[] = {
/* columns rows colors chars-per-pixel */
"8 11 18 1 ",
"  c #E70000",
". c #EB0000",
"X c #EF0000",
"o c #F62B00",
"O c #F62F00",
"+ c #F74800",
"@ c #F85A2F",
"# c #F85A33",
"$ c #FE8470",
"% c #FF8A77",
"& c #FF8D7B",
"* c None",
"= c None",
"- c None",
"; c None",
": c None",
"> c None",
", c None",
/* pixels */
",@.:,;.#",
",o -,= O",
",o -,= O",
"..%,,= O",
" X***$ O",
"       O",
"&%%%%+ O",
",,,,,= O",
",,,,,= O",
",,,,,= O",
",,,,,> +"
};
