/* XPM */
static char *_585032b416f42cd9084d17c9b97958ccflWYyOiGYUa73eu[] = {
/* columns rows colors chars-per-pixel */
"14 18 19 1 ",
"  c #E3251E",
". c #E32620",
"X c #E5352F",
"o c #E7403A",
"O c #E74640",
"+ c #E9504B",
"@ c #EA5954",
"# c #EB5F5A",
"$ c #F29794",
"% c #F7BEBC",
"& c #F9CECD",
"* c #F9D0CE",
"= c #FAD5D4",
"- c #FADBDA",
"; c #FBE1E0",
": c #FCE4E3",
"> c #FCEAE9",
", c #FEF6F6",
"< c None",
/* pixels */
"<<<-&=<<<<;&*<",
"<<<X  ,<<<+  -",
"<<<X  ,<<<+  -",
"<<<X  ,<<<+  -",
"<<<X  ,<<<+  -",
">$$  .,<<<+  -",
"%  @:><<<<+  -",
"%  #>>>>>>O  -",
"%            -",
"%            -",
"*ooooooooo   -",
"<<<<<<<<<<+  -",
"<<<<<<<<<<+  -",
"<<<<<<<<<<+  -",
"<<<<<<<<<<+  -",
"<<<<<<<<<<+  -",
"<<<<<<<<<<+  -",
"<<<<<<<<<<@ .;"
};
