/* XPM */
static char *result[] = {
/* columns rows colors chars-per-pixel */
"107 41 46 1 ",
"  c #DA3B26",
". c #DA3E29",
"X c #DB412C",
"o c #DB412D",
"O c #DE503D",
"+ c #E16353",
"@ c #E26757",
"# c #E26858",
"$ c #E26959",
"% c #E36D5E",
"& c #E36E5F",
"* c #E47060",
"= c #E47061",
"- c #E57566",
"; c #E57667",
": c #E57668",
"> c #E67E70",
", c #E67F71",
"< c #E78477",
"1 c #EB978C",
"2 c #EB988C",
"3 c #EC9B91",
"4 c #EC9E93",
"5 c #EC9E94",
"6 c None",
"7 c None",
"8 c None",
"9 c None",
"0 c None",
"q c None",
"w c None",
"e c None",
"r c None",
"t c None",
"y c None",
"u c None",
"i c None",
"p c None",
"a c None",
"s c None",
"d c None",
"f c None",
"g c None",
"h c None",
"j c None",
"k c None",
/* pixels */
"kkf222222fkkkkf222222fkkg32fkkkkd22fg3222222222fkkkkkkkkkkkkkkf222222fkk927kkkkk627k92222222227k922222227kk",
"kkw      ekkkkw      ekke  ekkkkw  re          rkkkkkkkkkkkkkkw      ekk$ $kkkkk# $k$         $k$       $kk",
"f2+      &5hf2+      &5he  ,2fd2>  re          rkkkkkkkkkkkkf2+      &5h# $kkkkk# $k#         $k#       O2r",
"e  qjjjjq  re  qjjjjq  re    ew    re  qjjjjjjjkkkkkkkkkkkkke  qjjjjq  r$ $kkkkk# $k$ #jjjjjjjjk$ #jjjjj@ $",
"e  ekkkku  re  ekkkkq  re    +>    re  ekkkkkkkkkkkkkkkkkkkke  ekkkkq  r$ $kkkkk# $k$ $kkkkkkkkk$ $kkkkk# $",
"e  ekkkkkjjke  ekkkkw  re  wq  w0  re  ekkkkkkkkkkkkkkkkkkkke  ekkkkw  r$ $kkkkk# $k$ $kkkkkkkkk$ $kkkkk# $",
"e  ed111115he  ekkkkq  re  ew Xsq  re  >11111fkkkkkkkkkkkkkke  ekkkkq  r$ $kkkkk# $k$ O111117kkk$ O11111  $",
"e  ew      re  ekkkkw  re  ekkkkw  re        ekkkkkkkkkkkkkke  ekkkkw  r$ $kkkkk# $k$       $kkk$       $kk",
"e  ew      re  >1111>  re  ekkkkq  re       oskkkkkkkkkkkkkke  ekkkkq  r$  16k61  $k$       <kkk$        1r",
"e  ekkkkq  re          re  ekkkkw  re  wkkkkkkkkkkkkkkkkkkkke  ekkkkw  rkk# $k# $kkk$ #kkkkkkkkk$ #kkkkk@ $",
"e  ekkkkq  re          re  ekkkkq  re  ekkkkkkkkkkkkkkkkkkkke  ekkkkq  rkk# $k# $kkk$ $kkkkkkkkk$ $kkkkk@ $",
"e  ekkkkw  re  wkkkkq  re  ekkkkw  re  ekkkkkkkkkkkkkkkkkkkke  ekkkkw  rkk# $k# $kkk$ $kkkkkkkkk$ $kkkkk# $",
"e  %1111*  re  ekkkkq  re  ekkkkq  re  >1111114hkkkkkkkkkkkke  %1111*  rkk#  1  :kkk$ O1111111ek$ $kkkkk@ $",
"kkw      ekke  ekkkkw  re  ekkkkw  re          rkkkkkkkkkkkkkkw      ekkkkkk# $kkkkk$         $k$ $kkkkk# $",
"kki      akkt  pkkkki  rt  pkkkki  rt          rkkkkkkkkkkkkkki      akkkkkk; :kkkkk*         $k* :kkkkk; $",
"kkkkkkkkkkkkkkkkkkkkkkkkkkkkkkkkkkkkkkkkkkkkkkkkkkkkkkkkkkkkkkkkkkkkkkkkkkkkkkkkkkkkkkkkkkkkkkkkkkkkkkkkkkk",
"kkkkkkkkkkkkkkkkkkkkkkkkkkkkkkkkkkkkkkkkkkkkkkkkkkkkkkkkkkkkkkkkkkkkkkkkkkkkkkkkkkkkkkkkkkkkkkkkkkkkkkkkkkk",
"kkkkkkkkkkkkkkkkkkkkkkkkkkkkkkkkkkkkkkkkkkkkkkkkkkkkkkkkkkkkkkkkkkkkkkkkkkkkkkkkkkkkkkkkkkkkkkkkkkkkkkkkkkk",
"kkkkkkkkkkkkkkkkkkkkkkkkkkkkkkkkkkkkkkkkkkkkkkkkkkkkkkkkkkkkkkkkkkkkkkkkkkkkkkkkkkkkkkkkkkkkkkkkkkkkkkkkkkk",
"kkkkkkkkkkkkkkkkkkkkkkkkkkkkkkkkkkkkkkkkkkkkkkkkkkkkkkkkkkkkkkkkkkkkkkkkkkkkkkkkkkkkkkkkkkkkkkkkkkkkkkkkkkk",
"kkkkkkkkkkkkkkkkkkkkkkkkkkkkkkkkkkkkkkkkkkkkkkkkkkkkkkkkkkkkkkkkkkkkkkkkkkkkkkkkkkkkkkkkkkkkkkkkkkkkkkkkkkk",
"kkkkkkkkkkkkkkkkkkkkkkkkkkkkkkkkkkkkkkkkkkkkkkkkkkkkkkkkkkkkkkkkkkkkkkkkkkkkkkkkkkkkkkkkkkkkkkkkkkkkkkkkkkk",
"kkkkkkkkkkkkkkkkkkkkkkkkkkkkkkkkkkkkkkkkkkkkkkkkkkkkkkkkkkkkkkkkkkkkkkkkkkkkkkkkkkkkkkkkkkkkkkkkkkkkkkkkkkk",
"kkkkkkkkkkkkkkkkkkkkkkkkkkkkkkkkkkkkkkkkkkkkkkkkkkkkkkkkkkkkkkkkkkkkkkkkkkkkkkkkkkkkkkkkkkkkkkkkkkkkkkkkkkk",
"kkkkkkkkkkkkkkkkkkkkkkkkkkkkkkkkkkkkkkkkkkkkkkkkkkkkkkkkkkkkkkkkkkkkkkkkkkkkkkkkkkkkkkkkkkkkkkkkkkkkkkkkkkk",
"kkkkkkkkkkkkkkkkkkkkkkkkkkkkkkkkkkkkkkkkkkkkkkkkkkkkkkkkkkkkkkkkkkkkkkkkkkkkkkkkkkkkkkkkkkkkkkkkkkkkkkkkkkk",
"kkkkkkg32fkkkkd22fkkf222222fkkg32fkkkkd22fkkkkkkkkkkkkg32fkkkkkkkkkk7222227kkkkk7222227kkk92222222227kkkkkk",
"kkkkkke  ekkkkw  rkkw      ekke  ekkkkw  rkkkkkkkkkkkke  ekkkkkkkkkk#     $kkkkk#     $kkk$         $kkkkkk",
"kkkkkke  ekkkkq  rf2+      &5he  ekkkkq  rkkkkkkkkkkkke  ekkkkkkkk62       2rk62       2rk#         $kkkkkk",
"kkkkkke  ekkkkw  re  qjjjjq  re  ekkkkw  rkkkkkkkkkkkke  ekkkkkkkk$ #jjjjj@ $k$ #jjjjj@ $k$ #jjjjjjjjkkkkkk",
"kkkkkky. +2fd2*  re  ekkkkq  re  ekkkkq  rkkkkkkkkkkkke  ekkkkkkkk$ $kkkkk# $k$ $kkkkk- $k$ $kkkkkkkkkkkkkk",
"kkkkkkkkq  ew  wjke  ekkkkw  re  ekkkkw  rkkkkkkkkkkkke  ekkkkkkkk$ $kkkkk# $k$ $kkkkkkjkk$ $kkkkkkkkkkkkkk",
"kkkkkkkkw  %=  pkke  ekkkkq  re  ekkkkq  rkkkkkkkkkkkke  ekkkkkkkk$ $kkkkk# $k$  111119kkk$ O111117kkkkkkkk",
"kkkkkkkkkkq  wkkkke  ekkkkw  re  ekkkkw  rkkkkkkkkkkkke  ekkkkkkkk$ $kkkkk# $kkk#     $kkk$       $kkkkkkkk",
"kkkkkkkkkkw  ekkkke  ekkkkq  re  ekkkkq  rkkkkkkkkkkkke  ekkkkkkkk$ $kkkkk# $kkk#      1rk$       <kkkkkkkk",
"kkkkkkkkkkw  ekkkke  ekkkkw  re  ekkkkw  rkkkkkkkkkkkke  ekkkkkkkk$ $kkkkk# $kkkkkkkkk@ $k$ #kkkkkkkkkkkkkk",
"kkkkkkkkkkw  ekkkke  ekkkkq  re  ekkkkq  rkkkkkkkkkkkke  ekkkkkkkk$ $kkkkk@ $k618kkkkk@ $k$ $kkkkkkkkkkkkkk",
"kkkkkkkkkkw  ekkkke  ekkkkw  re  ekkkkw  rkkkkkkkkkkkke  ekkkkkkkk$ $kkkkk# $k$ $kkkkk# $k$ $kkkkkkkkkkkkkk",
"kkkkkkkkkkw  ekkkke  %1111*  re  %1111*  rkkkkkkkkkkkke  >1111114h$  11111  $k$  11111  $k$ O1111111ekkkkkk",
"kkkkkkkkkkw  ekkkkkkw      ekkkkw      ekkkkkkkkkkkkkke          rkk#     $kkkkk#     $kkk$         $kkkkkk",
"kkkkkkkkkki  pkkkkkki      akkkki      akkkkkkkkkkkkkkt          rkk;     :kkkkk;     :kkk*         $kkkkkk"
};
