/* XPM */
static char *moves1721140779[] = {
/* columns rows colors chars-per-pixel */
"50 11 30 1 ",
"  c #E70000",
". c #E80000",
"X c #EC0000",
"o c #F62B00",
"O c #F62F00",
"+ c #F63E00",
"@ c #F74200",
"# c #F74800",
"$ c #F85A2F",
"% c #F85A33",
"& c #FA5C37",
"* c #FA5F3B",
"= c #FA6342",
"- c #FC745A",
"; c #FE8470",
": c #FF8A77",
"> c None",
", c None",
"< c None",
"1 c None",
"2 c None",
"3 c None",
"4 c None",
"5 c None",
"6 c None",
"7 c None",
"8 c None",
"9 c None",
"0 c None",
"q c None",
/* pixels */
"X%qqq6.%qqqqqqqqqqqqqqqqqqqqqqqqqqqqqqqqqqqqqqqqqq",
".X,q5;.Oqqqqqqqqqqqqqqqqqqqqqqqqqqqqqqqqqqqqqqqq,3",
"...5o .Oqqqqqqqqqqqqqqqqqqqqqqqqqqqqqqqqqqqqqqq4 O",
"..#.X=.Oqq$..XX9q7.$qqq6.%qq$XX.X9qqq$.X.X.%qqq4 O",
" O4 O4 Oq,     -35.Oqqq4 Oq,     -3q,. ... &qqq8 O",
" Oqqq4 O5 oqqq4 O5.Oqqq4 O4 oqqq4.O5.oqqqqqqqqqqqq",
" Oqqq4 O4 Oqqq4 O4 Oqqq4 O4 ...X..Oq> .X.X7qqqqqqq",
" Oqqq4 O4 Oqqq4 O4 .<q3- #4.. ..  *qqo  ..-3qqqq,5",
" Oqqq4 O5 Oqqq4 Oqqo.5o 6q4 oqqqqqqqqqqqq4 Oqqq4 O",
" Oqqq4 O0:X.X..+2qq1@..:qq0:.XX..7q7X.X...+2qqq4 O",
" #qqq8 #qq#.   8qqqq8 Oqqqqq# .. 8q7..  ..8qqqq8 O"
};
