/* XPM */
static char *_2d72ab82ec6490ac2409d9d8316faceXyTpzo4vEXDnxEoe[] = {
/* columns rows colors chars-per-pixel */
"72 18 54 1 ",
"  c #E3251E",
". c #E32620",
"X c #E42A23",
"o c #E42B25",
"O c #E52F28",
"+ c #E5352F",
"@ c #E63E38",
"# c #E7403A",
"$ c #E7453F",
"% c #E84741",
"& c #E84C46",
"* c #E9504B",
"= c #EA5A55",
"- c #EA5C57",
"; c #EA5E59",
": c #EB615C",
"> c #EC6C67",
", c #ED716C",
"< c #EE7773",
"1 c #EE7B77",
"2 c #F08783",
"3 c #F08B87",
"4 c #F18E8A",
"5 c #F1928F",
"6 c #F19491",
"7 c #F29794",
"8 c #F29996",
"9 c #F29C99",
"0 c #F3A2A0",
"q c #F4A8A6",
"w c #F4ACA9",
"e c #F5B3B0",
"r c #F6B4B2",
"t c #F6B6B4",
"y c #F6BAB7",
"u c #F7BEBC",
"i c #F7C2C0",
"p c #F8C7C6",
"a c #F8C8C7",
"s c #F8CAC8",
"d c #F9CECD",
"f c #F9D0CE",
"g c #FAD6D5",
"h c #FAD9D8",
"j c #FBDEDD",
"k c #FBE0DF",
"l c #FBE1E0",
"z c #FCE4E3",
"x c #FCE7E6",
"c c #FCEAE9",
"v c #FDF0EF",
"b c #FEF5F4",
"n c #FEFAFA",
"m c None",
/* pixels */
"nddxmmmmmmldfmmmmmmmmmmmmmmmmmmmmmmmmmmmmmmmmmmmmmmmmmmmmmmmmmmmmmmmmmmm",
"u  >mmmmmm*  hmmmmmmmmmmmmmmmmmmmmmmmmmmmmmmmmmmmmmmmmmmmmmmmmmmmmmmmmmm",
"u  >mmmmmm*  hmmmmmmmmmmmmmmmmmmmmmmmmmmmmmmmmmmmmmmmmmmmmmmmmmmmmmmmmmm",
"u   $&nx%$   hmmmmmmmmmmmmmmmmmmmmmmmmmmmmmmmmmmmmmmmmmmmmmmmmmmmmmmmmmm",
"u     bh     hmmmmmmmmmmmmmmmmmmmmmmmmmmmmmmmmmmmmmmmmmmmmmmmmmmmmmmmmmm",
"u     41     hmmmq777777tmmmc77immmmmmt78bmmmq777777tmmmmmmmq777777778bm",
"u  -z,  4z$  hmmm+      *mmmu  >mmmmmm*  hmmm+      *mmmmmmm+         hm",
"u  >m2  0m*  hmcco      $ccmu  >mmmmmm*  hmcco      $ccmmmcco         hm",
"u  >md55hm*  hi   555555   ju  >mmmmmm*  hi   555555   jmi   555555556bm",
"u  >mmmmmm*  hu  >mmmmmm*  hu  >mmmmmm*  hu  >mmmmmm*  hmu  >mmmmmmmmmmm",
"u  >mmmmmm*  hu  >mmmmmm*  hu  >mmmmmm*  hu  O::::::.  hmf## ::::::3mmmm",
"u  >mmmmmm*  hu  >mmmmmm*  hu  >mmmmmm*  hu            hmmmm+      *mmmm",
"u  >mmmmmm*  hu  >mmmmmm*  hu  Oeymnre   hu            hmmmm+       ernm",
"u  >mmmmmm*  hu  >mmmmmm*  hnaa   bh  Oasmu  *aaaaaaaasmmmmmgaaaaaaO  hm",
"u  >mmmmmm*  hu  >mmmmmm*  hmmm+  bh  *mmmu  >mmmmmmmmmmmmmmmmmmmmm*  hm",
"u  >mmmmmm*  hk<< XXXXXX <1vmmm3<   .<9mmmk<< XXXXXX;mmmmaXXXXXXXXX <1vm",
"u  >mmmmmm*  hmmm+      *mmmmmmmm2  0mmmmmmmm+      *mmmmu         *mmmm",
"p  <mmmmmm= .lmmm@      =mmmmmmmm5  wmmmmmmmm@      =mmmmp         =mmmm"
};
