/* XPM */
static char *nine1721140780[] = {
/* columns rows colors chars-per-pixel */
"8 11 20 1 ",
"  c #E70000",
". c #EB0000",
"X c #F62B00",
"o c #F62F00",
"O c #F63E00",
"+ c #F74800",
"@ c #F85A2F",
"# c #FB674A",
"$ c #FE8470",
"% c #FF8A77",
"& c None",
"* c None",
"= c None",
"- c None",
"; c None",
": c None",
"> c None",
", c None",
"< c None",
"1 c None",
/* pixels */
"1@....,1",
"*.    #-",
" X111> o",
" o111> o",
" .&&&$ o",
"1X     o",
"1;%%%+ o",
"&:111> o",
" o111> o",
"%.... O=",
"1+    <1"
};
