/* XPM */
static char *_e08509f33e34a4f8a28f4db94727cea3FTrcwwlq5MTwj2c[] = {
/* columns rows colors chars-per-pixel */
"14 18 29 1 ",
"  c #E3251E",
". c #E42A23",
"X c #E5352F",
"o c #E63E38",
"O c #E7403A",
"+ c #E7453F",
"@ c #E74640",
"# c #E84741",
"$ c #E9504B",
"% c #EA5853",
"& c #EA5B56",
"* c #EA5C57",
"= c #EC6C67",
"- c #EE7773",
"; c #EE7974",
": c #F1928F",
"> c #F5B3B0",
", c #F7BEBC",
"< c #F9CECD",
"1 c #F9D2D0",
"2 c #FAD5D4",
"3 c #FADBDA",
"4 c #FBE0DF",
"5 c #FBE1E0",
"6 c #FCE7E6",
"7 c #FCEAE9",
"8 c #FDF0EF",
"9 c #FDF2F2",
"0 c None",
/* pixels */
"0003<<<<<<5000",
"000X      $000",
"000X      $000",
"1++ &&&&&& +#6",
",  =000000$  3",
",  =000000$  3",
",  =000000$  3",
",  *777777@  3",
"7::          3",
"000X         3",
"000%OOOOOO   3",
"0000000000$  3",
"9>>2000000$  3",
",  =000000$  3",
",  =000000$  3",
"4-- ...... -;8",
"000X      $000",
"000o      &000"
};
