/* XPM */
static char *b96374c8c89b45d393e125c12126fbc265t3NSdwdco2xwIu[] = {
/* columns rows colors chars-per-pixel */
"14 18 21 1 ",
"  c #E3251E",
". c #E32620",
"X c #E42922",
"o c #E42B25",
"O c #E5352F",
"+ c #E63832",
"@ c #E7453F",
"# c #EA5D58",
"$ c #ED7470",
"% c #F08783",
"& c #F3A2A0",
"* c #F7BEBC",
"= c #F8C7C6",
"- c #F8C9C7",
"; c #F9CECD",
": c #FAD9D8",
"> c #FBE2E1",
", c #FCE4E3",
"< c #FDECEC",
"1 c #FEF4F4",
"2 c None",
/* pixels */
"22222<;;122222",
"22222%  &22222",
"22222%  &22222",
"222#@X  &22222",
"222O    &22222",
"222+    &22222",
"222<,$  &22222",
"22222%  &22222",
"22222%  &22222",
"22222%  &22222",
"22222%  &22222",
"22222%  &22222",
"22222%  &22222",
"22222%  &22222",
"22222%  &22222",
"-XXXX    XXXo>",
"*            :",
"=           .>"
};
