/* XPM */
static char *one1721140780[] = {
/* columns rows colors chars-per-pixel */
"8 11 13 1 ",
"  c #E70000",
". c #EB0000",
"X c #F62B00",
"o c #F62F00",
"O c #F74A02",
"+ c #F85A33",
"@ c None",
"# c None",
"$ c None",
"% c None",
"& c None",
"* c None",
"= c None",
/* pixels */
"==*.+===",
"=%# o===",
"=X  o===",
"=$@ o===",
"==& o===",
"==& o===",
"==& o===",
"==& o===",
"==& o===",
"...  ..+",
"       O"
};
