/* XPM */
static char *_c1aeb1e39494f2c848c300ff653f482[] = {
/* columns rows colors chars-per-pixel */
"16 16 7 1 ",
"  c None",
". c #141B1B",
"X c #2D697B",
"o c #D14B34",
"O c #8F3E56",
"+ c #E0394C",
"@ c #EF914F",
/* pixels */
"    ........    ",
"   .@@@@@@@@.   ",
"  .@@@o@@o@@@.  ",
"  .@@@@@@@@@@.  ",
"  .@@@@@@@@@@.  ",
"  .@@@@@@@@@@.  ",
" .@o@@@@@@@@o@. ",
" .@@@@@@@@@@@@. ",
"  .@@@@@@@@@@.  ",
"  .@@@@@@@@@@.  ",
"  .o@@@@@@@@o.  ",
" .+OooooooooO+. ",
" .++OOOOOOOO++. ",
".oo.XXXXXXXX.oo.",
".@@.OOO..OOO.@@.",
"    ........    "
};
