/* XPM */
static char *db7d481df3fb4792ba066d0fd29a9fe1sY4s9Rv33Bcv0tUr[] = {
/* columns rows colors chars-per-pixel */
"16 16 9 1 ",
"  c None",
". c white",
"X c #141B1B",
"o c #EF914F",
"O c #D14B34",
"+ c #E0394C",
"@ c #8F3E56",
"# c #2D697B",
"$ c white",
/* pixels */
"                ",
"....XXXXXXXX....",
"...XooooooooX...",
"..XoooOooOoooX..",
"..XooooooooooX..",
"..XoooOooOoooX..",
"..XooooooooooX..",
".XoOoXXOOXXoOoX.",
".XooooooooooooX.",
"..XooooOOooooX..",
"..XooooooooooX..",
"..XOooooooooOX..",
".X+@OOOOOOOO@+X.",
".X++@@@@@@@@++X.",
"XOOX########XOOX",
"XooX@@@XX@@@XooX"
};
