/* XPM */
static char *_baa99d98f7b4d0685bbd730527044ec[] = {
/* columns rows colors chars-per-pixel */
"16 16 7 1 ",
"  c None",
". c #141B1B",
"X c #2D697B",
"o c #D14B34",
"O c #8F3E56",
"+ c #E0394C",
"@ c #EF914F",
/* pixels */
"    ........    ",
"   .@@@@@@@@.   ",
"  .@@@o@@o@@@.  ",
"  .@@@@@@@@@@.  ",
"  .@@@o@@o@@@.  ",
"  .@@@@@@@@@@.  ",
" .@o@..oo..@o@. ",
" .@@@@@@@@@@@@. ",
"  .@@@@oo@@@@.  ",
"  .@@@@@@@@@@.  ",
"  .o@@@@@@@@o.  ",
" .+OooooooooO+. ",
" .++OOOOOOOO++. ",
".oo.XXXXXXXX.oo.",
".@@.OOO..OOO.@@.",
"                "
};
