/* XPM */
static char *_232c9a444da45f98162a2959282a278[] = {
/* columns rows colors chars-per-pixel */
"16 16 7 1 ",
"  c None",
". c #141B1B",
"X c #2D697B",
"o c #D14B34",
"O c #8F3E56",
"+ c #E0394C",
"@ c #EF914F",
/* pixels */
"   .........    ",
"  .@@@@@@o@@.   ",
" .@@@@@@@@@o@.  ",
" .@@@@@@@@@@@.  ",
" .@@@@@@@@@@@.  ",
" .@@@@@@@@@...  ",
" .@@@@..@@@@@@. ",
" .@@@.@o@@@@@o. ",
"  .@@.@@@@@@@@. ",
"  .@@@..@@@@@@. ",
"  .o@@@@@@@@@.  ",
"   .ooooooo..   ",
"   ..O+++OOO.   ",
"   .XX.@@XXX.   ",
"    .O.@@OO.    ",
"                "
};
