/* XPM */
static char *seven1721140780[] = {
/* columns rows colors chars-per-pixel */
"8 11 15 1 ",
"  c #E70000",
". c #EB0000",
"X c #EC0000",
"o c #F62B00",
"O c #F62F00",
"+ c #F74802",
"@ c #F85A33",
"# c #FC755F",
"$ c #FF8A77",
"% c None",
"& c None",
"* c None",
"= c None",
"- c None",
"; c None",
/* pixels */
"X......@",
"       O",
";;;;;& O",
";;;;;& O",
";;;;%# +",
";;;;o *;",
";;=. $;;",
";;& O;;;",
";;& O;;;",
";;& O;;;",
";;- O;;;"
};
