/* XPM */
static char *e045d3f05962485a9a9cb2c492dbd4c2u5mcGZfPaJBau1u0[] = {
/* columns rows colors chars-per-pixel */
"14 18 24 1 ",
"  c #E3251E",
". c #E7403A",
"X c #E7443F",
"o c #E84741",
"O c #E9504B",
"+ c #EA5B56",
"@ c #EB615C",
"# c #ED706C",
"$ c #F08783",
"% c #F1928F",
"& c #F19491",
"* c #F3A2A0",
"= c #F4ACA9",
"- c #F5B2B0",
"; c #F7BEBC",
": c #F9CECD",
"> c #F9D0CE",
", c #FAD8D6",
"< c #FAD9D8",
"1 c #FBDEDD",
"2 c #FCEAE9",
"3 c #FEF5F4",
"4 c #FEFAFA",
"5 c None",
/* pixels */
"4:::::::::::>5",
";            <",
";            <",
",+++++++++   <",
"5555555555O  <",
"5555555555O  <",
"5555555555O  <",
"5555555522X  <",
"55555551   %&3",
"5555555<  O555",
"55555-@o .#555",
"55555$  *55555",
"55555$  *55555",
"55555$  *55555",
"55555$  *55555",
"55555$  *55555",
"55555$  *55555",
"55555%  =55555"
};
