/* XPM */
static char *fb24d6f998ed412cf09492caa8c790bdRwAEBOHllWZpBRTc[] = {
/* columns rows colors chars-per-pixel */
"14 18 26 1 ",
"  c #E3251E",
". c #E42A23",
"X c #E5352F",
"o c #E63E38",
"O c #E7403A",
"+ c #E7453F",
"@ c #E9504B",
"# c #E9554F",
"$ c #EA5B56",
"% c #EB5F5A",
"& c #EB615C",
"* c #EC6C67",
"= c #EE7773",
"- c #EE7974",
"; c #F08582",
": c #F7BEBC",
"> c #F9CECD",
", c #F9D2D0",
"< c #FADBDA",
"1 c #FBE0DF",
"2 c #FBE1E0",
"3 c #FCEAE9",
"4 c #FDECEC",
"5 c #FDF0EF",
"6 c #FDF3F3",
"7 c None",
/* pixels */
"777<>>>>>>2777",
"777X      @777",
"777X      @777",
",++ $$$$$$;777",
":  *7777777777",
":  *7777777777",
":  *7777777777",
":  %3333336777",
":         #777",
":         @777",
":   OOOOOO &&4",
":  *777777@  <",
":  *777777@  <",
":  *777777@  <",
":  *777777@  <",
"1== ...... =-5",
"777X      @777",
"777o      $777"
};
