/* XPM */
static char *six1721140781[] = {
/* columns rows colors chars-per-pixel */
"8 11 19 1 ",
"  c #E70000",
". c #EB0000",
"X c #EF0000",
"o c #F62B00",
"O c #F62F00",
"+ c #F63B00",
"@ c #F63E00",
"# c #F74800",
"$ c #F85A2F",
"% c #F85A33",
"& c #FF8A77",
"* c None",
"= c None",
"- c None",
"; c None",
": c None",
"> c None",
", c None",
"< c None",
/* pixels */
"<$....><",
"=.    :<",
" o<<<<<<",
" O<<<<<<",
" X****<<",
"      :<",
" X&&&+ %",
" O<<<; O",
" O<<<; O",
"&.... @-",
"<#    ,<"
};
