/* XPM */
static char *c8072850f64a461db8e557b7715a6fabaHWjgWlrlVwOsjLP[] = {
/* columns rows colors chars-per-pixel */
"32 32 4 1 ",
"  c None",
". c #D78B4A",
"X c #F1C471",
"o c #FFE18D",
/* pixels */
" ... ...   ... .... ...   ... ..",
"..X...X. ...X...XX...X. ...X...X",
"X.X.X.X...X.X.X.XX.X.X...X.X.X.X",
"X.X.XXX.X.XXX.XXXX.XXX.X.XXX.XXX",
"X.XXXXXXXXXXXXXXXXXXXXXXXXXXXXXX",
"XXXXXXXXXXXXXXXXXXXXXXXXXXXXXXXX",
"XXXXXXXXXXXXXXXXXXXXXXXooXoXXXXX",
"XXXXXXooXXXXXXXXXXXXooXoXXoXXXXX",
"ooXooXXXXXXXXXXXXXXXXXXXXXXXXXXX",
"XXXXXXXooXXXXXXXXXXXXXooXooXXXXX",
"XooXooXoXXXXXXXXXXXXXXXXXXXXXXXX",
"XoXXXXXXXXXXXXXXXXXXXXoXooXXXXXX",
"XXXoXooXXXXXXXXXXXXXXXoXXXXXXXXX",
"XXXXXXXXXXXXXXXXXXXXXXXXXXXooXXX",
"XXXXXXXXXXXXXXXXXXXXXXXXXXXXXXXX",
"XXXXXXXXXXXXXXXXXXXXXXXXXXooXXXX",
"XXXXXXXXXXXXXXXXXXXXXXXXXXXXXXXX",
"XXXXXXXXXXXXXXXXXXXXXXXXXXXXXXXX",
"XXXXXXXXXXXXXXXXXXXXXXXXXXXXXXXX",
"XXXXXXXXXXXXXXXXXXXXXXXoXXXXXXXX",
"XXXXXXXXooXXXXXXXXXXooXoXXXXXXXX",
"XXXXXXXXXXXXXXXXXXXXXXXXXoXXXXXX",
"XXXXXXXXXooXXXXXXXooXooXooXXXXXX",
"XXXXXXXXXXXXXXXXXXoXXXXXXXXXXXXX",
"XXXXXooXoXXXXXXXXXXXooXoXXXXXoXX",
"XXXXXXXXoXXXXXXXXXXXXXXoXXXXooXX",
"XXXXXXXXXXXXXooXXXXXXXXXXXXXXXXX",
"XXXXXXXXXXXXXXXXXXXXXXXXXXXXooXX",
"XXXXXXXXXXXXooXXXXXXXXXXXXXXXXXX",
"XXXXXXXXXXXXXXXXXXXXXXXXXXXXXXXX",
"XXXXXXXXXXXXXXXXXXXXXXXooXXXXXXX",
"XXXXXXXXXXXXXXXXXXXXXXXXXXXXXXXX"
};
