/* XPM */
static char *_f9e810705a34d729b2f0c5b93cb2a45LyGmhfLRi3fw1wQk[] = {
/* columns rows colors chars-per-pixel */
"14 18 37 1 ",
"  c #E3251E",
". c #E42A23",
"X c #E5352F",
"o c #E63E38",
"O c #E7403A",
"+ c #E7453F",
"@ c #E84741",
"# c #E9504B",
"$ c #EA5B56",
"% c #EB615C",
"& c #EC6C67",
"* c #ED6F6B",
"= c #EE7773",
"- c #EE7974",
"; c #F08783",
": c #F08B88",
"> c #F1928F",
", c #F19491",
"< c #F3A09D",
"1 c #F5B3B0",
"2 c #F7BEBC",
"3 c #F7C1BF",
"4 c #F9CECD",
"5 c #F9D2D0",
"6 c #FAD5D4",
"7 c #FADBDA",
"8 c #FBE0DF",
"9 c #FBE1E0",
"0 c #FCE4E3",
"q c #FCE7E6",
"w c #FCEAE9",
"e c #FDECEC",
"r c #FDF0EF",
"t c #FDF3F3",
"y c #FEF5F4",
"u c #FEF9F9",
"i c None",
/* pixels */
"iii74444449iii",
"iiiX      #iii",
"iiiX      #iii",
"5++ $$$$$$ +@q",
"2  &iiiiii#  7",
"3  *iiiiii#  7",
"i00tiiiiii#  7",
"iiiiiuwwww+  7",
"iiiii:     >,y",
"iiiii;    #iii",
"iiiii<OOOO %%e",
"iiiiiiiiii#  7",
"t116iiiiii#  7",
"2  &iiiiii#  7",
"2  &iiiiii#  7",
"8== ...... =-r",
"iiiX      #iii",
"iiio      $iii"
};
