/* XPM */
static char *three1721140781[] = {
/* columns rows colors chars-per-pixel */
"8 11 23 1 ",
"  c #E70000",
". c #EB0000",
"X c #F62B00",
"o c #F62F00",
"O c #F63B00",
"+ c #F63E00",
"@ c #F74802",
"# c #F85A2F",
"$ c #F85A33",
"% c #FB674A",
"& c #FC7961",
"* c #FF8A77",
"= c #FF907F",
"- c #FFAC9F",
"; c None",
": c None",
"> c None",
", c None",
"< c None",
"1 c None",
"2 c None",
"3 c None",
"4 c None",
/* pixels */
"4#....24",
";.    %>",
" X444< o",
"*:444< o",
"444--& @",
"44<   14",
"444=*O $",
"-,444< o",
" o444< o",
"*.... +:",
"4@    34"
};
