/* XPM */
static char *_43c61b3a51d421cc46d57f505d17288vFvAy0JlwKzm4oy2[] = {
/* columns rows colors chars-per-pixel */
"14 18 35 1 ",
"  c #E3251E",
". c #E32620",
"X c #E42A23",
"o c #E42B25",
"O c #E5352F",
"+ c #E7403A",
"@ c #E7453F",
"# c #E84741",
"$ c #E9504B",
"% c #EA5B56",
"& c #EB615C",
"* c #EC6C67",
"= c #ED6F6B",
"- c #ED706C",
"; c #F08783",
": c #F1928F",
"> c #F19491",
", c #F3A2A0",
"< c #F5B3B0",
"1 c #F7BEBC",
"2 c #F7C1BF",
"3 c #F7C2C0",
"4 c #F8C7C6",
"5 c #F8C8C7",
"6 c #F9CECD",
"7 c #F9D2D0",
"8 c #FADBDA",
"9 c #FBDEDD",
"0 c #FBE1E0",
"q c #FCE4E3",
"w c #FCE7E6",
"e c #FCEAE9",
"r c #FDF3F3",
"t c #FEF5F4",
"y c None",
/* pixels */
"yyy86666660yyy",
"yyyO      $yyy",
"yyyO      $yyy",
"7@@ %%%%%% @#w",
"1  *yyyyyy$  8",
"2  =yyyyyy$  8",
"yqqryyyyyy$  8",
"yyyyyyyyee@  8",
"yyyyyyy9   :>t",
"yyyyyyy8  $yyy",
"yyyyy<&# +-yyy",
"yyyyy;  ,yyyyy",
"yyy3<+  ,yyyyy",
"yyyO  15ryyyyy",
"yyyO  tyyyyyyy",
"5XX   .XXXXXo0",
"1            8",
"4           .0"
};
