/* XPM */
static char *two1721140781[] = {
/* columns rows colors chars-per-pixel */
"8 11 18 1 ",
"  c #E70000",
". c #EB0000",
"X c #F62B00",
"o c #F62F00",
"O c #F74802",
"+ c #F85A2F",
"@ c #F85A33",
"# c #FB674A",
"$ c #FC755F",
"% c #FF8A77",
"& c None",
"* c None",
"= c None",
"- c None",
"; c None",
": c None",
"> c None",
", c None",
/* pixels */
",+....>,",
"&.    #=",
" X,,,- o",
"%*,,,- o",
",,,,=$ O",
",,,,X ;,",
",,:. %,,",
",=$ o,,,",
",X -,,,,",
".. ....@",
"       O"
};
