/* XPM */
static char *result[] = {
/* columns rows colors chars-per-pixel */
"107 41 46 1 ",
"  c #DA3B26",
". c #DA3E29",
"X c #DB412C",
"o c #DB412D",
"O c #DD4F3C",
"+ c #DE503D",
"@ c #E16353",
"# c #E26757",
"$ c #E26858",
"% c #E26959",
"& c #E36D5E",
"* c #E36E5F",
"= c #E47060",
"- c #E47061",
"; c #E47162",
": c #E57667",
"> c #E57668",
", c #E67E70",
"< c #E67F71",
"1 c #E78477",
"2 c None",
"3 c None",
"4 c None",
"5 c None",
"6 c None",
"7 c None",
"8 c None",
"9 c None",
"0 c None",
"q c None",
"w c None",
"e c None",
"r c None",
"t c None",
"y c None",
"u c None",
"i c None",
"p c None",
"a c None",
"s c None",
"d c None",
"f c None",
"g c None",
"h c None",
"j c None",
"k c None",
/* pixels */
"kkf333333fkkkkf333333fkkg43fkkkkd33fg4333333333fkkkkkkkkkkkkkkf333333fkk938kkkkk738k93333333338k933333338kk",
"kkw      ekkkkw      ekke  ekkkkw  re          rkkkkkkkkkkkkkkw      ekk% %kkkkk$ %k%         %k%       %kk",
"f3@      *6hf3@      *6he  <3fd3,  re          rkkkkkkkkkkkkf3@      *6h$ %kkkkk$ %k$         %k$       +3r",
"e  qjjjjq  re  qjjjjq  re    ew    re  qjjjjjjjkkkkkkkkkkkkke  qjjjjq  r% %kkkkk$ %k% $jjjjjjjjk% $jjjjj# %",
"e  ekkkku  re  ekkkkq  re    @,    re  ekkkkkkkkkkkkkkkkkkkke  ekkkkq  r% %kkkkk$ %k% %kkkkkkkkk% %kkkkk$ %",
"e  ekkkkkjjke  ekkkkw  re  wq  w0  re  ekkkkkkkkkkkkkkkkkkkke  ekkkkw  r% %kkkkk$ %k% %kkkkkkkkk% %kkkkk$ %",
"e  ed222226he  ekkkkq  re  ew Xsq  re  ,22222fkkkkkkkkkkkkkke  ekkkkq  r% %kkkkk$ %k% +222228kkk% +22222  %",
"e  ew      re  ekkkkw  re  ekkkkw  re        ekkkkkkkkkkkkkke  ekkkkw  r% %kkkkk$ %k%       %kkk%       %kk",
"e  ew      re  ,2222,  re  ekkkkq  re       oskkkkkkkkkkkkkke  ekkkkq  r%  27k72  %k%       1kkk%        2r",
"e  ekkkkq  re          re  ekkkkw  re  wkkkkkkkkkkkkkkkkkkkke  ekkkkw  rkk$ %k$ %kkk% $kkkkkkkkk% $kkkkk# %",
"e  ekkkkq  re          re  ekkkkq  re  ekkkkkkkkkkkkkkkkkkkke  ekkkkq  rkk$ %k$ %kkk% %kkkkkkkkk% %kkkkk# %",
"e  ekkkkw  re  wkkkkq  re  ekkkkw  re  ekkkkkkkkkkkkkkkkkkkke  ekkkkw  rkk$ %k$ %kkk% %kkkkkkkkk% %kkkkk$ %",
"e  &2222=  re  ekkkkq  re  ekkkkq  re  ,2222225hkkkkkkkkkkkke  &2222=  rkk$  2  >kkk% +2222222ek% %kkkkk# %",
"kkw      ekke  ekkkkw  re  ekkkkw  re          rkkkkkkkkkkkkkkw      ekkkkkk$ %kkkkk%         %k% %kkkkk$ %",
"kki      akkt  pkkkki  rt  pkkkki  rt          rkkkkkkkkkkkkkki      akkkkkk: >kkkkk=         %k= >kkkkk: %",
"kkkkkkkkkkkkkkkkkkkkkkkkkkkkkkkkkkkkkkkkkkkkkkkkkkkkkkkkkkkkkkkkkkkkkkkkkkkkkkkkkkkkkkkkkkkkkkkkkkkkkkkkkkk",
"kkkkkkkkkkkkkkkkkkkkkkkkkkkkkkkkkkkkkkkkkkkkkkkkkkkkkkkkkkkkkkkkkkkkkkkkkkkkkkkkkkkkkkkkkkkkkkkkkkkkkkkkkkk",
"kkkkkkkkkkkkkkkkkkkkkkkkkkkkkkkkkkkkkkkkkkkkkkkkkkkkkkkkkkkkkkkkkkkkkkkkkkkkkkkkkkkkkkkkkkkkkkkkkkkkkkkkkkk",
"kkkkkkkkkkkkkkkkkkkkkkkkkkkkkkkkkkkkkkkkkkkkkkkkkkkkkkkkkkkkkkkkkkkkkkkkkkkkkkkkkkkkkkkkkkkkkkkkkkkkkkkkkkk",
"kkkkkkkkkkkkkkkkkkkkkkkkkkkkkkkkkkkkkkkkkkkkkkkkkkkkkkkkkkkkkkkkkkkkkkkkkkkkkkkkkkkkkkkkkkkkkkkkkkkkkkkkkkk",
"kkkkkkkkkkkkkkkkkkkkkkkkkkkkkkkkkkkkkkkkkkkkkkkkkkkkkkkkkkkkkkkkkkkkkkkkkkkkkkkkkkkkkkkkkkkkkkkkkkkkkkkkkkk",
"kkkkkkkkkkkkkkkkkkkkkkkkkkkkkkkkkkkkkkkkkkkkkkkkkkkkkkkkkkkkkkkkkkkkkkkkkkkkkkkkkkkkkkkkkkkkkkkkkkkkkkkkkkk",
"kkkkkkkkkkkkkkkkkkkkkkkkkkkkkkkkkkkkkkkkkkkkkkkkkkkkkkkkkkkkkkkkkkkkkkkkkkkkkkkkkkkkkkkkkkkkkkkkkkkkkkkkkkk",
"kkkkkkkkkkkkkkkkkkkkkkkkkkkkkkkkkkkkkkkkkkkkkkkkkkkkkkkkkkkkkkkkkkkkkkkkkkkkkkkkkkkkkkkkkkkkkkkkkkkkkkkkkkk",
"kkkkkkkkkkkkkkkkkkkkkkkkkkkkkkkkkkkkkkkkkkkkkkkkkkkkkkkkkkkkkkkkkkkkkkkkkkkkkkkkkkkkkkkkkkkkkkkkkkkkkkkkkkk",
"kkkkkkkkkkkkkkkkkkkkkkkkkkkkkkkkkkkkkkkkkkkkkkkkkkkkkkkkkkkkkkkkkkkkkkkkkkkkkkkkkkkkkkkkkkkkkkkkkkkkkkkkkkk",
"kkkkkkkkkkkkg43fkkkkd33fkkf333333fkkg43fkkkkd33fkkkkkkkkkkkkg43fkkkkd33f93333333338k938kkkkk738kkkkkkkkkkkk",
"kkkkkkkkkkkke  ekkkkw  rkkw      ekke  ekkkkw  rkkkkkkkkkkkke  ekkkkw  r%         %k% %kkkkk$ %kkkkkkkkkkkk",
"kkkkkkkkkkkke  ekkkkq  rf3@      *6he  ekkkkq  rkkkkkkkkkkkke  ekkkkq  r$         %k$ %kkkkk$ %kkkkkkkkkkkk",
"kkkkkkkkkkkke  ekkkkw  re  qjjjjq  re  ekkkkw  rkkkkkkkkkkkke  ekkkkw  rjjjj$ $jjjjk% %kkkkk$ %kkkkkkkkkkkk",
"kkkkkkkkkkkky. @3fd3=  re  ekkkkq  re  ekkkkq  rkkkkkkkkkkkke  ekkkkq  rkkkk$ %kkkkk% +38kkk$ %kkkkkkkkkkkk",
"kkkkkkkkkkkkkkq  ew  wjke  ekkkkw  re  ekkkkw  rkkkkkkkkkkkke  ekkkkw  rkkkk$ %kkkkk%   %kkk$ %kkkkkkkkkkkk",
"kkkkkkkkkkkkkkw  &-  pkke  ekkkkq  re  ekkkkq  rkkkkkkkkkkkke  ekkkkq  rkkkk$ %kkkkk%   +27k$ %kkkkkkkkkkkk",
"kkkkkkkkkkkkkkkkq  wkkkke  ekkkkw  re  ekkkkw  rkkkkkkkkkkkke  ekkkkw  rkkkk$ %kkkkk% $k$ %k# %kkkkkkkkkkkk",
"kkkkkkkkkkkkkkkkw  ekkkke  ekkkkq  re  ekkkkq  rkkkkkkkkkkkke  ed22fq  rkkkk$ %kkkkk% %k$  2O %kkkkkkkkkkkk",
"kkkkkkkkkkkkkkkkw  ekkkke  ekkkkw  re  ekkkkw  rkkkkkkkkkkkke  ew  ew  rkkkk$ %kkkkk% %kkk$   %kkkkkkkkkkkk",
"kkkkkkkkkkkkkkkkw  ekkkke  ekkkkq  re  ekkkkq  rkkkkkkkkkkkke  ,=  ;,  rkkkk$ %kkkkk% %kkk$   %kkkkkkkkkkkk",
"kkkkkkkkkkkkkkkkw  ekkkke  ekkkkw  re  ekkkkw  rkkkkkkkkkkkke    wq    rkkkk$ %kkkkk% %kkkkk# %kkkkkkkkkkkk",
"kkkkkkkkkkkkkkkkw  ekkkke  &2222=  re  &2222=  rkkkkkkkkkkkke   osw    r7222O +222ek% %kkkkk# %kkkkkkkkkkkk",
"kkkkkkkkkkkkkkkkw  ekkkkkkw      ekkkkw      ekkkkkkkkkkkkkke  wkkkkq  r%         %k% %kkkkk$ %kkkkkkkkkkkk",
"kkkkkkkkkkkkkkkki  pkkkkkki      akkkki      akkkkkkkkkkkkkkt  pkkkki  r=         %k= >kkkkk: %kkkkkkkkkkkk"
};
