/* XPM */
static char *zero1721140781[] = {
/* columns rows colors chars-per-pixel */
"8 11 21 1 ",
"  c #E70000",
". c #EB0000",
"X c #EF0000",
"o c #F62B00",
"O c #F62F00",
"+ c #F63E00",
"@ c #F74800",
"# c #F85A2F",
"$ c #FA6545",
"% c #FB674A",
"& c #FF8A77",
"* c #FFAC9F",
"= c #FFAFA2",
"- c None",
"; c None",
": c None",
"> c None",
", c None",
"< c None",
"1 c None",
"2 c None",
/* pixels */
"2#....,2",
"=.    %:",
" o222> O",
" O22#. O",
" O2*X  O",
" O> O> O",
" ..$-> O",
"   12> O",
" o222> O",
"&.... +;",
"2@    <2"
};
