/* XPM */
static char *result[] = {
/* columns rows colors chars-per-pixel */
"14 18 43 1 ",
"  c #E3251E",
". c #E42A23",
"X c #E42E28",
"o c #E52F28",
"O c #E5312A",
"+ c #E5312B",
"@ c #E5352F",
"# c #E63B35",
"$ c #E63E38",
"% c #E7403A",
"& c #E7453F",
"* c #E84741",
"= c #E9504B",
"- c #EA5A55",
"; c #EA5B56",
": c #EB615C",
"> c #EC6C67",
", c #EE7773",
"< c #EE7974",
"1 c #F08783",
"2 c #F08B88",
"3 c #F1928F",
"4 c #F29794",
"5 c #F29996",
"6 c #F3A2A0",
"7 c #F6B8B6",
"8 c #F7BEBC",
"9 c #F7C3C1",
"0 c #F8C8C7",
"q c #F9CECD",
"w c #F9CFCE",
"e c #F9D2D0",
"r c #FAD9D8",
"t c #FADBDA",
"y c #FBE0DF",
"u c #FBE1E0",
"i c #FCE7E6",
"p c #FCEAE9",
"a c #FDF0EF",
"s c #FEF5F4",
"d c #FEF6F5",
"f c #FEF9F9",
"g c None",
/* pixels */
"gggtqqqqqquggg",
"ggg@      =ggg",
"ggg@      =ggg",
"e&& ;;;;;; &*i",
"8  >gggggg=  r",
"8  >gggd54+  r",
"8  >gggr     r",
"8  >gfp9     r",
"8  >g2  -3O  r",
"8  >g1  6g=  r",
"8  X:o#%7g=  r",
"8     sggg=  r",
"8     sggg=  r",
"8  =0wgggg=  r",
"8  >gggggg=  r",
"y,, ...... ,<a",
"ggg@      =ggg",
"ggg$      -ggg"
};
