/* XPM */
static char *_554e2d11a354e4cb72bf20180474153u1oEQJ8Hkz0xB8sZ[] = {
/* columns rows colors chars-per-pixel */
"47 48 4 1 ",
"  c None",
". c #D78B4A",
"X c #F1C471",
"o c #FFE18D",
/* pixels */
" ... ...   ... ... ...   ... .... ...   ... ...",
" .o...o. ...X...X...X. ...X...XX...X. ...X...X.",
" .o.X.o...X.X.X.X.X.X...X.X.X.XX.X.X...X.X.X.X.",
".XX.XXX.X.XXX.X.X.XXX.X.XXX.XXXX.XXX.X.XXX.XXX.",
".XXXXXXXXXXXXXX.XXXXXXXXXXXXXXXXXXXXXXXXXXXXXX.",
".oXXXXXXXXXXXXXXXXXXXXXXXXXXXXXXXXXXXXXXXXXXXX.",
".oXXXXXXXXXXXXXXXXXXXXXXXXXXXXXXXXXXXooXoXXXXX.",
".oXooXXXXXXXXXXXXXXXooXXXXXXXXXXXXooXoXXoXXXXX.",
".oXXXXXXXXXXXXooXooXXXXXXXXXXXXXXXXXXXXXXXXXXX.",
".XXooXXXXXXXXXXXXXXXXooXXXXXXXXXXXXXooXooXXXXX.",
".XXXXXXXXXXXXXXooXooXoXXXXXXXXXXXXXXXXXXXXXXXX.",
".oXXXXXXXXXXXXXoXXXXXXXXXXXXXXXXXXXXoXooXXXXXX.",
".XXXXXXXXXXXXXXXXoXooXXXXXXXXXXXXXXXoXXXXXXXXX.",
".oXXoXooXXXXXXXXXXXXXXXXXXXXXXXXXXXXXXXXXooXXX.",
".oXXoXoXXXXXXXXXXXXXXXXXXXXXXXXXXXXXXXXXXXXXXX.",
".oXXXXXXXXXXXXXXXXXXXXXXXXXXXXXXXXXXXXXXooXXXX.",
".XXXooXoXoXXXXXXXXXXXXXXXXXXXXXXXXXXXXXXXXXXXX.",
".XXXXXXoXXXXXXXXXXXXXXXXXXXXXXXXXXXXXXXXXXXXXX.",
".XXXXoXXXXXXXXXXXXXXXXXXXXXXXXXXXXXXXXXXXXXXXX.",
".XXXXooXXXXXXXXXXXXXXXXXXXXXXXXXXXXXXoXXXXXXXX.",
".XXXXXXXXXXXXXXXXXXXXXooXXXXXXXXXXooXoXXXXXXXX.",
".XXXXXXXXXXXXXXXXXXXXXXXXXXXXXXXXXXXXXXoXXXXXX.",
".XXXXXXXXXooXXXXXXXXXXXooXXXXXXXooXooXooXXXXXX.",
".oXXXXXXXXXXXXXXXXXXXXXXXXXXXXXXoXXXXXXXXXXXXX.",
".oXooXXXXXXXXXXXXXXooXoXXXXXXXXXXXooXoXXXXXoXX.",
".XXXXXXXXXXXXXXXXXXXXXoXXXXXXXXXXXXXXoXXXXooXX.",
".XooXXXXXXXXXXXXXXXXXXXXXXXooXXXXXXXXXXXXXXXXX.",
".XXXXXXXXXXXXXXXXXXXXXXXXXXXXXXXXXXXXXXXXXooXX.",
".oXXXXXXXXXXXXXXXXXXXXXXXXooXXXXXXXXXXXXXXXXXX.",
".oXXXXXXXXXXXXXXXXXXXXXXXXXXXXXXXXXXXXXXXXXXXX.",
".XXXXXXXXXXXXXXXXXXXXXXXXXXXXXXXXXXXXooXXXXXXX.",
".XXXXXXXXXXXXXXXXXXXXXXXXXXXXXXXXXXXXXXXXXXXXX.",
".XXXXXXXXXXXXXXXXXXXXXXXXXXXXXXXXXXXXXXXXXXXXX.",
".XXXooXXXXXXXXXXXXXXXXXXXXXXXXXXXXXXXXXXXXXXXX.",
".XXXXXXXXXXXXXXXXXXXXXXXXXXXXXXXXXXXXXXXXXXXXX.",
".XXXXXXXXXXXXXXXXXXXXXXXXXXXXXXXXXXXXXXXXXXoXX.",
".XooXooXXXXXXXXXXXXXXXXXXXXXXXXXXXXXXXXXXXXoXX.",
".XXXXXXXXXXXXXXXXXXXXXXXooXXXXXXXXXoooXXXXXXXX.",
".XXooXooXoXXXXXXXXXXXXXXXXXXXXXXXXXXXXXXXXooXX.",
".XXoXXXXXoXXXXXXXXXXXXooXooXXXXXXXXXoooXXXXXXX.",
".XXXXoXoXXXXXXXXXXXXXXXXXXXXXXXXXXXXXXXXXXXXXX.",
".XXXooXoXXXXXXXXXXXXXXXXooXXXXXXXXXXXXXXXXXXXX.",
".XXXXXXXXXXXXXXXXXXXXXXXXXXXXXXXXXXXXXXXXXXXXX.",
".XXXXXXXXXXXXX.XXXXXXXXXXXXXXXXXXXXXXXXXXXXXXX.",
".X.XXX.X.XXX.X.X.XXX.X.XXX.XXXX.XXX.X.XXX.XXXX.",
".X.X.X...X.X.X.X.X.X...X.X.X.X..X.X...X.X.X.X. ",
".X...X. ...X...X...X. ...X...X....X. ...X...X. ",
"... ...   ... ... ...   ... .... ...   ... ... "
};
