/* XPM */
static char *_627e2732d6f47b48628e0d9248f487dIch8JxNzyVTjA9Gk[] = {
/* columns rows colors chars-per-pixel */
"32 32 6 1 ",
"  c None",
". c #141B1B",
"X c #2D697B",
"o c #4A5270",
"O c #548789",
"+ c #748E90",
/* pixels */
"                                ",
"         ..............         ",
"       ..XOOOOOOOOOOOOO..       ",
"      .XXOOOOOOOOOOOOOOOX..     ",
"     .XXOOOOOOOOOOOOOOOOXXo.    ",
"    .XXOOOOOOOOOOOOOOOOOOXXo.   ",
"   .OXOOO++OOOOOOOOOOOOOOOOXo.  ",
"  .OOXOOOOOOOOOOOOOOOOOOOOOXXo. ",
"  .OOXOOO++OOOOOOOOOOOOOOOOOXO. ",
" .OOXOOOO++OOOOOOOOOOOOOOOOOXO. ",
" .OOXOOOOOOOOOOOOOOOOOOOOOOOXOo.",
" .OOXOOOOOOOOOOOOOOOOOOOOOOOXOo.",
" .OOXOOOOOXOOOOOOOOOOOOXOOOXOOo.",
".XOOXXOOOOOXOOOOOOOOOOXOOOOXOOo.",
".XOXXXOOOOOOOOOOOOOOXXOOOOOXOOo.",
".XXOOXOOOOOOOOOOOXXOOOOOOOOXOOo.",
".XXOOXXOOOOOOOOOOOOOOOOOOOXOOOo.",
".XXXXXOXOOOOOOOOOOOOOOOOOXOOOXo.",
".XXXXXOOXOOOOOOOOOOOOOOOOXOOOXo.",
".oXXOXXOOOOOOOOOOOXOOOOXXXOOOXo.",
".oXXXOXXOOOOOXXXXXOOOOXoXXXOXXo.",
".oXXXXOXXOOOOOOOOOOOOOXXXXXOXXo.",
".oXXXXXXXXOOOOOOOOOOOXXXoXXXXoo.",
"oooXXXOOXXXXOOOOOOOXXXOXoXXXooo.",
"ooooXXXXOXXXXXXXXXXXOOXXXoXXooo.",
"oooooXXXXXXXOOOOOXOOXXXXXoXoooo ",
" oooooXXXXXXXXXXXXXXXXXXXooooo  ",
"  ooooooXXXXXXXXXXXXXXXoooooo   ",
"    oooooooooooooooooooooooo    ",
"     oooooooooooooooooooooo     ",
"       ooooooooooooooooo        ",
"                                "
};
